<?xml version="1.0" standalone="no"?>
<!DOCTYPE svg PUBLIC "-//W3C//DTD SVG 20010904//EN"
 "http://www.w3.org/TR/2001/REC-SVG-20010904/DTD/svg10.dtd">
<svg version="1.0" xmlns="http://www.w3.org/2000/svg"
 width="24.000000pt" height="24.000000pt" viewBox="0 0 24.000000 24.000000"
 preserveAspectRatio="xMidYMid meet">
<metadata>
Created by potrace 1.16, written by Peter Selinger 2001-2019
</metadata>
<g transform="translate(0.000000,24.000000) scale(0.002000,-0.002230)"
fill="#000000" stroke="none">
<path d="M4645 10743 c-79 -5 -173 -22 -262 -48 -100 -29 -273 -103 -273 -117
0 -13 -52 77 708 -1238 354 -613 764 -1323 910 -1577 l267 -461 16 26 c56 90
1880 3255 1877 3257 -14 13 -147 73 -203 92 -106 36 -185 52 -308 63 -101 9
-2599 12 -2732 3z"/>
<path d="M1887 3462 l-1887 -2 0 -69 c0 -138 53 -348 122 -486 17 -33 122
-217 233 -410 111 -192 404 -699 650 -1125 246 -426 468 -804 493 -840 65 -93
213 -236 312 -301 200 -133 365 -190 609 -210 84 -7 1319 -9 3676 -7 l3550 4
90 22 c333 82 572 233 755 476 35 46 154 247 390 656 46 80 114 197 150 260
37 63 129 223 205 355 76 132 168 292 205 355 216 371 411 712 434 757 69 138
114 303 123 453 l6 105 -989 -2 c-544 -2 -2395 1 -4114 5 -1719 4 -3974 6
-5013 4z"/>
</g>
</svg>
